{"accessors":[{"bufferView":0,"byteOffset":0,"componentType":5126,"count":60,"max":[1,4.74141979217529,1.18836009502411],"min":[-1,-1,-1.05011999607086],"normalized":false,"type":"VEC3"},{"bufferView":1,"byteOffset":0,"componentType":5126,"count":60,"max":[1,0.00874937046319246,0.999961853027344,1],"min":[-1,-0.00871860049665,-1,1],"normalized":false,"type":"VEC4"},{"bufferView":2,"byteOffset":0,"componentType":5126,"count":60,"max":[1,0.98449844121933,0.999985694885254],"min":[-1,-1,-0.99998897314072],"normalized":false,"type":"VEC3"},{"bufferView":3,"byteOffset":0,"componentType":5126,"count":60,"max":[1,1],"min":[0,0.080399788916111],"normalized":false,"type":"VEC2"},{"bufferView":4,"byteOffset":0,"componentType":5123,"count":108,"max":[59],"min":[0],"normalized":false,"type":"SCALAR"}],"asset":{"generator":"Godot Engine v4.3.stable.official@77dcf97d82cbfe4e4615475fa52ca03da645dbd8","version":"2.0"},"bufferViews":[{"buffer":0,"byteLength":720,"byteOffset":0,"byteStride":12,"target":34962},{"buffer":0,"byteLength":960,"byteOffset":720,"byteStride":16,"target":34962},{"buffer":0,"byteLength":720,"byteOffset":1680,"byteStride":12,"target":34962},{"buffer":0,"byteLength":480,"byteOffset":2400,"byteStride":8,"target":34962},{"buffer":0,"byteLength":216,"byteOffset":2880,"target":34963}],"buffers":[{"byteLength":3096,"uri":"building10.bin"}],"extensions":{"OMI_physics_shape":{"shapes":[{"box":{"size":[16,38,16]},"type":"box"}]}},"extensionsUsed":["GODOT_single_root","OMI_physics_body","OMI_physics_shape"],"images":[{"uri":"textures%2FMaterial_002_albedo.png"}],"materials":[{"doubleSided":true,"extensions":{},"name":"Material_002","pbrMetallicRoughness":{"baseColorFactor":[0.99999988079071,0.99999988079071,0.99999988079071,1],"baseColorTexture":{"index":0},"metallicFactor":0,"roughnessFactor":0.5}}],"meshes":[{"extras":{"targetNames":[]},"primitives":[{"attributes":{"NORMAL":2,"POSITION":0,"TANGENT":1,"TEXCOORD_0":3},"indices":4,"material":0,"mode":4}]}],"nodes":[{"children":[1,3],"name":"Blding 1"},{"children":[2],"extensions":{"OMI_physics_body":{"motion":{"type":"static"}}},"name":"StaticBody3D","translation":[0,6.80000019073486,0]},{"extensions":{"OMI_physics_body":{"collider":{"shape":0}}},"name":"CollisionShape3D","translation":[0,12.1311521530151,0]},{"mesh":0,"name":"MeshInstance3D","scale":[7.96702241897583,6.77008676528931,8.05696868896484],"translation":[0,6.80000019073486,0]}],"samplers":[{"magFilter":9729,"minFilter":9987,"wrapS":10497,"wrapT":10497}],"scene":0,"scenes":[{"nodes":[0]}],"textures":[{"sampler":0,"source":0}]}