{"accessors":[{"bufferView":0,"byteOffset":0,"componentType":5126,"count":153,"max":[8.88722515106201,-0.38711005449295,11.7909717559814],"min":[-8.87887859344482,-1,-6.06099843978882],"normalized":false,"type":"VEC3"},{"bufferView":1,"byteOffset":0,"componentType":5126,"count":153,"max":[1,1,0.999993681907654,1],"min":[-1,-1.00000011920929,-0.99999350309372,1],"normalized":false,"type":"VEC4"},{"bufferView":2,"byteOffset":0,"componentType":5126,"count":153,"max":[1,1,1],"min":[-1,-1,-0.99999409914017],"normalized":false,"type":"VEC3"},{"bufferView":3,"byteOffset":0,"componentType":5126,"count":153,"max":[0.773801445960999,1],"min":[-0.00001180727304,-0.00001525878906],"normalized":false,"type":"VEC2"},{"bufferView":4,"byteOffset":0,"componentType":5123,"count":300,"max":[145],"min":[0],"normalized":false,"type":"SCALAR"},{"bufferView":5,"byteOffset":0,"componentType":5126,"count":162,"max":[8.84378337860107,-0.79721617698669,11.6858243942261],"min":[-8.82457828521729,-1.10580992698669,-4.16633033752441],"normalized":false,"type":"VEC3"},{"bufferView":6,"byteOffset":0,"componentType":5126,"count":162,"max":[1,0.000155240297317505,0.0000304571603919612,1],"min":[-0.3229715526104,-1,-1,1],"normalized":false,"type":"VEC4"},{"bufferView":7,"byteOffset":0,"componentType":5126,"count":162,"max":[1,1,1],"min":[-1,-1,-1],"normalized":false,"type":"VEC3"},{"bufferView":8,"byteOffset":0,"componentType":5126,"count":162,"max":[1,1],"min":[-0.00001525878906,0.0368810892105103],"normalized":false,"type":"VEC2"},{"bufferView":9,"byteOffset":0,"componentType":5123,"count":399,"max":[161],"min":[0],"normalized":false,"type":"SCALAR"}],"asset":{"generator":"Godot Engine v4.3.stable.official@77dcf97d82cbfe4e4615475fa52ca03da645dbd8","version":"2.0"},"bufferViews":[{"buffer":0,"byteLength":1836,"byteOffset":0,"byteStride":12,"target":34962},{"buffer":0,"byteLength":2448,"byteOffset":1836,"byteStride":16,"target":34962},{"buffer":0,"byteLength":1836,"byteOffset":4284,"byteStride":12,"target":34962},{"buffer":0,"byteLength":1224,"byteOffset":6120,"byteStride":8,"target":34962},{"buffer":0,"byteLength":600,"byteOffset":7344,"target":34963},{"buffer":0,"byteLength":1944,"byteOffset":7944,"byteStride":12,"target":34962},{"buffer":0,"byteLength":2592,"byteOffset":9888,"byteStride":16,"target":34962},{"buffer":0,"byteLength":1944,"byteOffset":12480,"byteStride":12,"target":34962},{"buffer":0,"byteLength":1296,"byteOffset":14424,"byteStride":8,"target":34962},{"buffer":0,"byteLength":798,"byteOffset":15720,"target":34963}],"buffers":[{"byteLength":16520,"uri":"streetcornerstraight0.bin"}],"extensions":{"OMI_physics_shape":{"shapes":[{"box":{"size":[16,0.5,16]},"type":"box"}]}},"extensionsUsed":["GODOT_single_root","OMI_physics_body","OMI_physics_shape"],"images":[{"uri":"textures%2FMaterial_004_albedo.png"},{"uri":"textures%2FMaterial_005_albedo.png"}],"materials":[{"doubleSided":true,"extensions":{},"name":"Material_004","pbrMetallicRoughness":{"baseColorFactor":[0.99999988079071,0.99999988079071,0.99999988079071,1],"baseColorTexture":{"index":0},"metallicFactor":0,"roughnessFactor":0.5}},{"doubleSided":true,"extensions":{},"name":"Material_005","pbrMetallicRoughness":{"baseColorFactor":[0.99999988079071,0.99999988079071,0.99999988079071,1],"baseColorTexture":{"index":1},"metallicFactor":0,"roughnessFactor":0.5}}],"meshes":[{"extras":{"targetNames":[]},"primitives":[{"attributes":{"NORMAL":2,"POSITION":0,"TANGENT":1,"TEXCOORD_0":3},"indices":4,"material":0,"mode":4}]},{"extras":{"targetNames":[]},"primitives":[{"attributes":{"NORMAL":7,"POSITION":5,"TANGENT":6,"TEXCOORD_0":8},"indices":9,"material":1,"mode":4}]}],"nodes":[{"children":[1,3,4],"name":"streetcornerstraight"},{"children":[2],"extensions":{"OMI_physics_body":{"motion":{"type":"static"}}},"name":"StaticBody3D"},{"extensions":{"OMI_physics_body":{"collider":{"shape":0}}},"name":"CollisionShape3D"},{"mesh":0,"name":"Cube_004","rotation":[0,0.70709627866745,0,0.707117259502411],"scale":[0.909273564815521,1,0.890371859073639],"translation":[-2.4848895072937,0.887109577655792,0.0087127685546875]},{"mesh":1,"name":"Cube_005","rotation":[0,0.70709627866745,0,0.707117259502411],"scale":[0.909273564815521,1,0.890371859073639],"translation":[-2.4848895072937,0.997129082679749,0.0087127685546875]}],"samplers":[{"magFilter":9729,"minFilter":9987,"wrapS":10497,"wrapT":10497}],"scene":0,"scenes":[{"nodes":[0]}],"textures":[{"sampler":0,"source":0},{"sampler":0,"source":1}]}