{"accessors":[{"bufferView":0,"byteOffset":0,"componentType":5126,"count":80,"max":[5.04315996170044,-0.7972160577774,11.6858997344971],"min":[-5.0382399559021,-1.10581004619598,-11.2929000854492],"normalized":false,"type":"VEC3"},{"bufferView":1,"byteOffset":0,"componentType":5126,"count":80,"max":[1,0.0000305817193293478,0.0000304571603919612,1],"min":[-1,-1,-0.00011929869652,1],"normalized":false,"type":"VEC4"},{"bufferView":2,"byteOffset":0,"componentType":5126,"count":80,"max":[1,1,1],"min":[-1,-1,-1],"normalized":false,"type":"VEC3"},{"bufferView":3,"byteOffset":0,"componentType":5126,"count":80,"max":[0.917738616466522,1],"min":[0,0],"normalized":false,"type":"VEC2"},{"bufferView":4,"byteOffset":0,"componentType":5123,"count":252,"max":[79],"min":[0],"normalized":false,"type":"SCALAR"},{"bufferView":5,"byteOffset":0,"componentType":5126,"count":104,"max":[8.87891960144043,-0.44507598876953,11.6821002960205],"min":[-8.87887954711914,-1,-11.2919998168945],"normalized":false,"type":"VEC3"},{"bufferView":6,"byteOffset":0,"componentType":5126,"count":104,"max":[1,0.0000305817193293478,0.0000304571603919612,1],"min":[-1,-1,-0.00011929869652,1],"normalized":false,"type":"VEC4"},{"bufferView":7,"byteOffset":0,"componentType":5126,"count":104,"max":[1,1,1],"min":[-1,-1,-1],"normalized":false,"type":"VEC3"},{"bufferView":8,"byteOffset":0,"componentType":5126,"count":104,"max":[0.788464188575745,1],"min":[0,0],"normalized":false,"type":"VEC2"},{"bufferView":9,"byteOffset":0,"componentType":5123,"count":264,"max":[103],"min":[0],"normalized":false,"type":"SCALAR"}],"asset":{"generator":"Godot Engine v4.3.stable.official@77dcf97d82cbfe4e4615475fa52ca03da645dbd8","version":"2.0"},"bufferViews":[{"buffer":0,"byteLength":960,"byteOffset":0,"byteStride":12,"target":34962},{"buffer":0,"byteLength":1280,"byteOffset":960,"byteStride":16,"target":34962},{"buffer":0,"byteLength":960,"byteOffset":2240,"byteStride":12,"target":34962},{"buffer":0,"byteLength":640,"byteOffset":3200,"byteStride":8,"target":34962},{"buffer":0,"byteLength":504,"byteOffset":3840,"target":34963},{"buffer":0,"byteLength":1248,"byteOffset":4344,"byteStride":12,"target":34962},{"buffer":0,"byteLength":1664,"byteOffset":5592,"byteStride":16,"target":34962},{"buffer":0,"byteLength":1248,"byteOffset":7256,"byteStride":12,"target":34962},{"buffer":0,"byteLength":832,"byteOffset":8504,"byteStride":8,"target":34962},{"buffer":0,"byteLength":528,"byteOffset":9336,"target":34963}],"buffers":[{"byteLength":9864,"uri":"street0.bin"}],"extensions":{"OMI_physics_shape":{"shapes":[{"box":{"size":[16,0.5,16]},"type":"box"}]}},"extensionsUsed":["GODOT_single_root","OMI_physics_body","OMI_physics_shape"],"images":[{"uri":"textures%2F_albedo000.png"},{"uri":"textures%2F_albedo002.png"}],"materials":[{"extensions":{},"pbrMetallicRoughness":{"baseColorFactor":[0.99999988079071,0.99999988079071,0.99999988079071,1],"baseColorTexture":{"index":0},"metallicFactor":0,"roughnessFactor":1}},{"extensions":{},"pbrMetallicRoughness":{"baseColorFactor":[0.99999988079071,0.99999988079071,0.99999988079071,1],"baseColorTexture":{"index":1},"metallicFactor":0,"roughnessFactor":1}}],"meshes":[{"extras":{"targetNames":[]},"primitives":[{"attributes":{"NORMAL":2,"POSITION":0,"TANGENT":1,"TEXCOORD_0":3},"indices":4,"material":0,"mode":4}]},{"extras":{"targetNames":[]},"primitives":[{"attributes":{"NORMAL":7,"POSITION":5,"TANGENT":6,"TEXCOORD_0":8},"indices":9,"material":1,"mode":4}]}],"nodes":[{"children":[1,2,3],"name":"street"},{"mesh":0,"name":"Cube","scale":[0.873974025249481,1.00271260738373,0.695116400718689],"translation":[0,1.02084457874298,0]},{"mesh":1,"name":"Cube_001","scale":[0.873974025249481,1.00271260738373,0.695116400718689],"translation":[0,0.877009451389313,0]},{"children":[4,5,6],"extensions":{"OMI_physics_body":{"motion":{"type":"static"}}},"name":"StaticBody3D"},{"name":"Sidewalk","translation":[-6.92964935302734,0,0]},{"extensions":{"OMI_physics_body":{"collider":{"shape":0}}},"name":"Road","translation":[0,-0.05499999970198,0]},{"name":"WalkSide","translation":[7.10107564926147,0,0]}],"samplers":[{"magFilter":9729,"minFilter":9987,"wrapS":10497,"wrapT":10497}],"scene":0,"scenes":[{"nodes":[0]}],"textures":[{"sampler":0,"source":0},{"sampler":0,"source":1}]}