{"accessors":[{"bufferView":0,"byteOffset":0,"componentType":5126,"count":211,"max":[8.88722515106201,-0.41308778524399,11.7909727096558],"min":[-8.90540599822998,-1,-6.06520318984985],"normalized":false,"type":"VEC3"},{"bufferView":1,"byteOffset":0,"componentType":5126,"count":211,"max":[1,0.999999940395355,1,1],"min":[-0.99466079473495,-1,-1,-1],"normalized":false,"type":"VEC4"},{"bufferView":2,"byteOffset":0,"componentType":5126,"count":211,"max":[1,1,1],"min":[-1,-1,-0.99923521280289],"normalized":false,"type":"VEC3"},{"bufferView":3,"byteOffset":0,"componentType":5126,"count":211,"max":[0.808823585510254,1],"min":[-0.00000001615341,-0.00000011920929],"normalized":false,"type":"VEC2"},{"bufferView":4,"byteOffset":0,"componentType":5123,"count":408,"max":[199],"min":[0],"normalized":false,"type":"SCALAR"},{"bufferView":5,"byteOffset":0,"componentType":5126,"count":55,"max":[8.84378337860107,-0.79721617698669,11.6858234405518],"min":[-5.03823852539063,-1.10580992698669,-3.67771291732788],"normalized":false,"type":"VEC3"},{"bufferView":6,"byteOffset":0,"componentType":5126,"count":55,"max":[1,0.0000465260818600655,0.323147594928741,1],"min":[-1,-1,-0.32309323549271,1],"normalized":false,"type":"VEC4"},{"bufferView":7,"byteOffset":0,"componentType":5126,"count":55,"max":[1,1,1],"min":[-1,-1,-0.00012207032705],"normalized":false,"type":"VEC3"},{"bufferView":8,"byteOffset":0,"componentType":5126,"count":55,"max":[0.917738616466522,1],"min":[0,0],"normalized":false,"type":"VEC2"},{"bufferView":9,"byteOffset":0,"componentType":5123,"count":132,"max":[54],"min":[0],"normalized":false,"type":"SCALAR"}],"asset":{"generator":"Godot Engine v4.3.stable.official@77dcf97d82cbfe4e4615475fa52ca03da645dbd8","version":"2.0"},"bufferViews":[{"buffer":0,"byteLength":2532,"byteOffset":0,"byteStride":12,"target":34962},{"buffer":0,"byteLength":3376,"byteOffset":2532,"byteStride":16,"target":34962},{"buffer":0,"byteLength":2532,"byteOffset":5908,"byteStride":12,"target":34962},{"buffer":0,"byteLength":1688,"byteOffset":8440,"byteStride":8,"target":34962},{"buffer":0,"byteLength":816,"byteOffset":10128,"target":34963},{"buffer":0,"byteLength":660,"byteOffset":10944,"byteStride":12,"target":34962},{"buffer":0,"byteLength":880,"byteOffset":11604,"byteStride":16,"target":34962},{"buffer":0,"byteLength":660,"byteOffset":12484,"byteStride":12,"target":34962},{"buffer":0,"byteLength":440,"byteOffset":13144,"byteStride":8,"target":34962},{"buffer":0,"byteLength":264,"byteOffset":13584,"target":34963}],"buffers":[{"byteLength":13848,"uri":"streetcorner0.bin"}],"extensions":{"OMI_physics_shape":{"shapes":[{"box":{"size":[14.8443603515625,0.5,4.2718505859375]},"type":"box"},{"box":{"size":[2.11279296875,0.5,1.86572265625]},"type":"box"}]}},"extensionsUsed":["GODOT_single_root","OMI_physics_body","OMI_physics_shape"],"images":[{"uri":"textures%2FMaterial_004_albedo.png"},{"uri":"textures%2FMaterial_005_albedo.png"}],"materials":[{"doubleSided":true,"extensions":{},"name":"Material_004","pbrMetallicRoughness":{"baseColorFactor":[0.99999988079071,0.99999988079071,0.99999988079071,1],"baseColorTexture":{"index":0},"metallicFactor":0,"roughnessFactor":0.5}},{"doubleSided":true,"extensions":{},"name":"Material_005","pbrMetallicRoughness":{"baseColorFactor":[0.99999988079071,0.99999988079071,0.99999988079071,1],"baseColorTexture":{"index":1},"metallicFactor":0,"roughnessFactor":0.5}}],"meshes":[{"extras":{"targetNames":[]},"primitives":[{"attributes":{"NORMAL":2,"POSITION":0,"TANGENT":1,"TEXCOORD_0":3},"indices":4,"material":0,"mode":4}]},{"extras":{"targetNames":[]},"primitives":[{"attributes":{"NORMAL":7,"POSITION":5,"TANGENT":6,"TEXCOORD_0":8},"indices":9,"material":1,"mode":4}]}],"nodes":[{"children":[1,10,11],"name":"streetcorner"},{"children":[2,3,4,5,6,7,8,9],"extensions":{"OMI_physics_body":{"motion":{"type":"static"}}},"name":"StaticBody3D"},{"extensions":{"OMI_physics_body":{"collider":{"shape":0}}},"name":"CollisionShape3D","translation":[-0.53371524810791,0.0000019073486328125,-5.87148714065552]},{"extensions":{"OMI_physics_body":{"collider":{"shape":0}}},"name":"CollisionShape3D2","rotation":[0,0.114694431424141,0,0.993400812149048],"translation":[-0.58218669891357,0.0000019073486328125,-4.61965179443359]},{"extensions":{"OMI_physics_body":{"collider":{"shape":0}}},"name":"CollisionShape3D4","rotation":[0,0.226268827915192,0,0.974064946174622],"translation":[0.0446290969848633,0.0000019073486328125,-2.98106098175049]},{"extensions":{"OMI_physics_body":{"collider":{"shape":0}}},"name":"CollisionShape3D5","rotation":[0,0.380384474992752,0,0.924828469753265],"translation":[1.12262582778931,0.0000019073486328125,-1.47159790992737]},{"extensions":{"OMI_physics_body":{"collider":{"shape":0}}},"name":"CollisionShape3D6","rotation":[0,0.490356206893921,0,0.871522128582001],"translation":[2.9818286895752,0.0000019073486328125,-0.11586427688599]},{"extensions":{"OMI_physics_body":{"collider":{"shape":0}}},"name":"CollisionShape3D7","rotation":[0,0.602323651313782,0,0.798251986503601],"translation":[4.39102172851563,0.0000019073486328125,0.499461650848389]},{"extensions":{"OMI_physics_body":{"collider":{"shape":0}}},"name":"CollisionShape3D3","rotation":[0,0.70710676908493,0,0.70710676908493],"translation":[5.91034507751465,0.0000019073486328125,0.669646024703979]},{"extensions":{"OMI_physics_body":{"collider":{"shape":1}}},"name":"CollisionShape3D8","translation":[6.69914674758911,0.000000476837158203125,-7.08350038528442]},{"mesh":0,"name":"Cube_004","rotation":[0,0.70709627866745,0,0.707117259502411],"scale":[0.904297590255737,1,0.898735702037811],"translation":[-2.79999995231628,0.88711005449295,0]},{"mesh":1,"name":"Cube_005","rotation":[0,0.70709627866745,0,0.707117259502411],"scale":[0.904297590255737,1,0.898735702037811],"translation":[-2.79999995231628,0.997129559516907,0]}],"samplers":[{"magFilter":9729,"minFilter":9987,"wrapS":10497,"wrapT":10497}],"scene":0,"scenes":[{"nodes":[0]}],"textures":[{"sampler":0,"source":0},{"sampler":0,"source":1}]}